inDegrees=no
num_controls=7
num_derivatives=13
num_iterations=90
num_multipliers=7
num_parameters=0
num_slacks=7
num_states=26
objective=0.426621
objective_accelerations=0.058067
objective_balance=0.001323
objective_effort=0.014430
objective_height=0.346861
objective_ligament=0.005940
solver_duration=1308.986974
status=Solve_Succeeded
success=true
DataType=double
version=3
OpenSimVersion=4.5
endheader
time	/jointset/ground_pelvis/pelvis_tilt/value	/jointset/ground_pelvis/pelvis_tx/value	/jointset/ground_pelvis/pelvis_ty/value	/jointset/hip_l/hip_flexion_l/value	/jointset/hip_l/hip_adduction_l/value	/jointset/hip_l/hip_rotation_l/value	/jointset/back/lumbar_extension/value	/jointset/patellofemoral_l/patellar_flexion_l/value	/jointset/knee_l/knee_flexion_l/value	/jointset/knee_l/knee_adduction_l/value	/jointset/knee_l/knee_rotation_l/value	/jointset/ankle_l/ankle_angle_l/value	/jointset/subtalar_l/subtalar_angle_l/value	/jointset/ground_pelvis/pelvis_tilt/speed	/jointset/ground_pelvis/pelvis_tx/speed	/jointset/ground_pelvis/pelvis_ty/speed	/jointset/hip_l/hip_flexion_l/speed	/jointset/hip_l/hip_adduction_l/speed	/jointset/hip_l/hip_rotation_l/speed	/jointset/back/lumbar_extension/speed	/jointset/patellofemoral_l/patellar_flexion_l/speed	/jointset/knee_l/knee_flexion_l/speed	/jointset/knee_l/knee_adduction_l/speed	/jointset/knee_l/knee_rotation_l/speed	/jointset/ankle_l/ankle_angle_l/speed	/jointset/subtalar_l/subtalar_angle_l/speed	/forceset/tau_hip_flexion_l	/forceset/tau_hip_adduction_l	/forceset/tau_hip_rotation_l	/forceset/tau_knee_flexion_l	/forceset/tau_ankle_angle_l	/forceset/tau_subtalar_angle_l	/forceset/tau_lumbar_extension	lambda_cid13_p0	lambda_cid13_p1	lambda_cid13_p2	lambda_cid13_p3	lambda_cid13_p4	lambda_cid13_p5	lambda_cid14_p0	/jointset/ground_pelvis/pelvis_tilt/accel	/jointset/ground_pelvis/pelvis_tx/accel	/jointset/ground_pelvis/pelvis_ty/accel	/jointset/hip_l/hip_flexion_l/accel	/jointset/hip_l/hip_adduction_l/accel	/jointset/hip_l/hip_rotation_l/accel	/jointset/back/lumbar_extension/accel	/jointset/patellofemoral_l/patellar_flexion_l/accel	/jointset/knee_l/knee_flexion_l/accel	/jointset/knee_l/knee_adduction_l/accel	/jointset/knee_l/knee_rotation_l/accel	/jointset/ankle_l/ankle_angle_l/accel	/jointset/subtalar_l/subtalar_angle_l/accel	gamma_cid13_p0	gamma_cid13_p1	gamma_cid13_p2	gamma_cid13_p3	gamma_cid13_p4	gamma_cid13_p5	gamma_cid14_p0
0.5	-0.1984222457122169	0.03042998209039202	0.7738457186890891	0.9715037380750469	-0.362062335939736	-0.005846193589770583	-0.4007435323233344	0.9582742552167982	0.9582742552168213	-0.02907046065075668	-0.1745031448065977	0.3138636832464601	0.1654783071241755	-0.7064791479780045	-0.1659748784101481	-0.5174278458144381	2.33299518571515	0.04023387171650906	0.5204427080120322	-0.3032659504505198	1.991947581393134	1.991947581393084	0.3253472784003241	0.0005322409646795715	0.5312500554151485	0.2784903980460878	-0.09221813450950107	0.03242593727647414	-0.001780896591092133	-0.2146424808278912	0.02145826679964708	0.01149385509719597	0.1095710718169481	-17.76061862927962	0.3968997394893531	-2.947367774536876	-3.928272201675319	-439.9263394918238	-62.16511981400014	-4.891775977871678	0.2077175828668009	0.4552991543716772	-0.4687742979059253	-1.140414399901512	0.07102821335967165	-0.7943666374002103	1.390069958981999	-1.560636486460712	-1.560636486460729	-0.1951605989541019	-0.007801148148592965	-0.7873790324690196	0.09176099107852509	-4.695701424570304e-07	-8.219263153799402e-08	6.628117126425652e-06	3.93181844812651e-07	-1.315563471835322e-06	-1.119087456906229e-06	-7.931802848181587e-07
0.51	-0.2054746646113841	0.02879328313984587	0.768649299084771	0.9947718398481769	-0.3616591032164462	-0.0006750578284994489	-0.4037075573200167	0.9781121315262342	0.9781121315262457	-0.02583686692136617	-0.1744978214241954	0.3191352020437599	0.1682632608093978	-0.7039033934862827	-0.1613441879254998	-0.5217361636117168	2.320306909337401	0.04040789973243871	0.5137442795147724	-0.289518602034836	1.975350567055116	1.975350567055067	0.3213581183324135	0.0005141126425203824	0.5229830422765775	0.2784509983783623	-0.09664733318889435	0.03351691690438179	-0.002253057603450625	-0.2171750733991521	0.02005020928013419	0.01194268541296287	0.1129857338888422	-18.37739311449917	0.442270844175312	-3.105727434256783	-3.799161990588659	-443.137214335031	-62.22577655754837	-4.26663363163916	0.2976664127389355	0.4701467205617834	-0.394131258370602	-1.380824088964864	-0.01115648011699228	-0.6143713979531594	1.370134310506089	-1.750645316027251	-1.7506453160271	-0.5027087699589177	-0.0003066333536703297	-0.8569644479798986	-0.06000450471590431	-4.472042997895976e-07	2.9800599931795e-07	6.594148874727355e-06	4.374250947448279e-07	-1.255949118075086e-06	-7.196040917438271e-07	-7.66249584604018e-07
0.52	-0.2124982935595509	0.02720352963915627	0.7634133421549337	1.017903500891077	-0.3612544795281621	0.004427735559384541	-0.4065334954270133	0.9977757554105829	0.9977757554105755	-0.02264354780450972	-0.1744929769168259	0.3243219303109884	0.1710461776861392	-0.7007211577779995	-0.1565857884388362	-0.5253353109182697	2.305707039669523	0.04051206471530621	0.5067742333349406	-0.2756485725133723	1.957097096374899	1.957097096374852	0.3172923558945273	0.000436465956195421	0.5142919494008558	0.2780830363499234	-0.1010765318683068	0.03460789653227704	-0.002725218615871528	-0.2197076659704174	0.01864215176061932	0.01239151572871263	0.1164003959607204	-18.98874085104164	0.4789607512237617	-3.253868969745089	-3.719046287519298	-446.2681002896153	-62.39888489113122	-3.690489463525845	0.3290138261790627	0.4808409547747582	-0.3269401997607433	-1.522733057927279	0.05705560674721016	-0.8486901739146289	1.414606180137939	-1.891927754900584	-1.891927754900588	-0.2104810729492657	-0.01970482098181461	-0.872194979899152	0.02604851893582565	-4.246782599866077e-07	6.116145768910046e-07	6.52707774611409e-06	4.710250212867235e-07	-1.192674725649032e-06	-3.434450262723063e-07	-7.424349200789622e-07
0.53	-0.2194873199643423	0.02566192567420697	0.7581449636192789	1.040880049888338	-0.3608488413831997	0.009459813484508844	-0.4092201259410319	1.017248830404986	1.017248830404966	-0.01949103549056528	-0.1744888420988879	0.3294197880311643	0.1738241798509047	-0.6969935887487942	-0.1517205409542617	-0.5282160029192852	2.28929819531009	0.04061748580979593	0.4995765875548611	-0.2616728363400295	1.937247783615251	1.937247783615243	0.3132273031043442	0.0003692536743411889	0.5052143744127129	0.2774763344582612	-0.1054187590013471	0.03525999868552971	-0.003046961857660504	-0.2225512276689658	0.01730040068855034	0.01283933665166433	0.119716062121274	-19.59314188042586	0.5149627414354809	-3.402007129694377	-3.581640204029013	-449.5715258390844	-62.69330886708283	-3.162297308289344	0.4081908933330315	0.4916339195507462	-0.2502065941994401	-1.745688453918423	-0.01346989027982371	-0.6657124553358232	1.389761428464295	-2.071804884847058	-2.071804884841151	-0.5018066275227766	-0.002150987872579074	-0.9352983734182623	-0.1110862874392711	-3.996559042728703e-07	8.785899487236709e-07	6.38288484316209e-06	4.952805382194431e-07	-1.122755108530155e-06	1.260963960319341e-09	-7.124045077040187e-07
0.54	-0.2264363581884331	0.0241694276389538	0.7528514635848284	1.06368336477621	-0.3604423000775084	0.01441783281677553	-0.411766858274811	1.036515337902125	1.036515337902088	-0.01637863155362047	-0.1744857637149785	0.3344249180784294	0.1765947036479091	-0.6927235216379191	-0.1467646024996083	-0.5303596106774062	2.27106021779197	0.04069269686109967	0.4919625147635333	-0.2476689364654137	1.915783596921598	1.915783596921629	0.3092706804953639	0.0002251791490718068	0.4957464148187134	0.2765873627977181	-0.109760986134405	0.03591210083877725	-0.003368705099505977	-0.2253947893675178	0.01595864961648146	0.0132871575746103	0.1230317282818115	-20.19311957891672	0.5427995260692456	-3.54039804779433	-3.490808302287156	-452.8122167699793	-63.09595522218479	-2.680801071325499	0.4375134425130158	0.4989791487905901	-0.1795233511818604	-1.888559689664675	0.05101359810998751	-0.9319755761643381	1.420238920392504	-2.214902541701553	-2.214902541701568	-0.1887950367087154	-0.03507726966489672	-0.9502719010704418	-0.03040543484036341	-3.718716671259654e-07	1.093971135481865e-06	6.153365721792764e-06	5.091975594143509e-07	-1.045483327921345e-06	3.111678071201243e-07	-6.754970977079227e-07
0.55	-0.2333399304230493	0.02272678419827875	0.7475401749204346	1.086295544997491	-0.3600350024064385	0.01929908726390228	-0.4141734769371928	1.055559639773774	1.055559639773798	-0.01330614543324449	-0.1744837654569583	0.3393335147699784	0.1793550709415301	-0.6878850398341656	-0.1417647752068828	-0.5317762819509415	2.251087402613858	0.04075375779453586	0.4843650819694914	-0.2336668588167116	1.892839999053578	1.892839999053557	0.3051061078606673	0.0002008149402539702	0.485903803379568	0.2754153565251634	-0.114422592682719	0.0372224244370168	-0.003548424087994218	-0.2276474297003565	0.01378752305725136	0.01315654512520608	0.1264844408897336	-21.12590118793736	0.9117242555886703	-3.769268807983127	-2.996290451291852	-456.0346097741852	-62.75701600064357	-2.244541901229845	0.5228861720236535	0.5004844415620787	-0.1046636448985207	-2.094941867990774	-0.01930202748281517	-0.6627222227902843	1.388382766228954	-2.369474089421819	-2.369474089429617	-0.5482020439077389	0.01903634275635162	-1.011582359348177	-0.1721203351881063	-2.860131752736949e-07	4.618437118216859e-07	4.568642400410979e-06	3.280921790465875e-07	-7.97773162506244e-07	6.717533347507871e-08	-5.341427304422897e-07
0.5600000000000001	-0.2401919437150843	0.02133413901494065	0.7422183346174137	1.108699337179767	-0.3596276849997234	0.0241065483647361	-0.4164404367072639	1.074367428530731	1.074367428530814	-0.01027888777263069	-0.174480980373173	0.3441416200283335	0.1821014137500804	-0.6824117331217283	-0.1367649510322176	-0.5324699384028477	2.229382609991493	0.0406966439902415	0.4772038455048037	-0.2197371580032145	1.868480973982773	1.8684809739827	0.3002249885436679	0.0003825443012988697	0.4756481281799587	0.2737824657836052	-0.1190841992310517	0.03853274803525954	-0.003728143076564619	-0.229900070033198	0.01161639649802446	0.01302593267580909	0.1299371534976376	-22.05748201191841	1.276086500634964	-3.992438155725858	-2.536374321819471	-459.2119458989873	-62.51258131664142	-1.852016641678522	0.56447842424978	0.4989785251785358	-0.03492038685602814	-2.234955178515259	0.0273786505638533	-0.8447363102935229	1.405763553351493	-2.497987982258545	-2.497987982258563	-0.3321043731693003	0.006141444307612559	-1.032884653163218	-0.122582328641122	-1.304655777749877e-07	-1.187294044340506e-06	1.357674039014294e-06	-8.704008319637358e-08	-3.455369353236e-07	-8.414963203357659e-07	-2.674520144532163e-07
0.5700000000000001	-0.2469866476893913	0.01999156758614391	0.7368932237857974	1.13087788015646	-0.3592202108846014	0.02883457929389331	-0.418568217820009	1.092924509346828	1.092924509346865	-0.007293613641862345	-0.1744789394998709	0.3488457173673876	0.1848313883140965	-0.6764530290828081	-0.1317383380855972	-0.532422491472492	2.206028986173193	0.04077761249867342	0.4684812908765163	-0.2058395513829313	1.842682137666875	1.842682137666806	0.2966967743208343	7.111240368963859e-05	0.465121947472773	0.272138085901557	-0.1231689301848474	0.0386519569909884	-0.003791256678168257	-0.2333636208259747	0.01076207828400537	0.0133182322990091	0.1330132607538982	-22.53157016105916	1.372062472391316	-4.167552144881622	-2.514261703175656	-462.6049596813131	-63.04836920367894	-1.501455882346649	0.6229528422222859	0.5060878031918492	0.04401975486363396	-2.430132041693537	-0.004431098892945233	-0.8743100735222685	1.37868619078384	-2.658765872354601	-2.658765872354012	-0.3834223835226823	-0.04313141829909134	-1.069993809942098	-0.1961297006776097	-3.997431546444484e-08	-2.098279514431554e-06	-4.835627776855266e-07	-3.22264795139689e-07	-7.921173772898079e-08	-1.344809309649336e-06	-1.122683499712638e-07
0.58	-0.253719487333607	0.01869957931157097	0.731572475927861	1.152813973683327	-0.3588125044943708	0.033477725669884	-0.4205576374716681	1.111216014916544	1.11121601491654	-0.004347670140654396	-0.1744786821278435	0.3534430510932805	0.187542766302754	-0.6700388671035229	-0.1266483201874574	-0.5315973436668483	2.180892720026646	0.04074309901207241	0.4602269348711922	-0.1920648657859648	1.81536592470701	1.815365924706945	0.2923588626307094	2.584404592541612e-05	0.4542954055477533	0.2700631507118716	-0.1272536611386608	0.03877116594672353	-0.003854370279712447	-0.2368271716187496	0.009907760069990107	0.01361053192221931	0.1360893680101408	-23.00571943708775	1.461300006717814	-4.333884104538455	-2.505524731686445	-466.0032790232877	-63.61492882094949	-1.191328519918828	0.6555700123228001	0.5116595154824304	0.1206197882015807	-2.59148364416454	0.004282251557258071	-0.7510965857008819	1.381179348688136	-2.80146331105193	-2.80146331105192	-0.4940438666275898	0.05937415227658879	-1.092956896730019	-0.2086933901686072	-3.42075827012761e-08	-2.047950379406725e-06	-5.409631640825083e-07	-3.231913020416133e-07	-5.500322983038642e-08	-1.320213340547869e-06	-1.023031711729989e-07
0.59	-0.2603859018743775	0.0174586437106208	0.7262637988919797	1.174490217152012	-0.3584055029167137	0.03803923904809558	-0.422410036046418	1.129227190163935	1.129227190163952	-0.001447498410973945	-0.1744781236201926	0.3579307149007687	0.1902315672668289	-0.6631615009887212	-0.121543993726372	-0.5300141108872916	2.154088984865187	0.04065388771642094	0.452014286749751	-0.1784528067753451	1.786649433576539	1.786649433576499	0.2876930613388344	7.410377201724575e-05	0.4431927764519137	0.267648617537954	-0.1315379103800329	0.03944406711374428	-0.004011902927988187	-0.2395808091978778	0.008209174325311368	0.01358606716665875	0.1392023983319776	-23.78099630619776	1.742452491068943	-4.532660625860995	-2.146139931363922	-469.2129520378808	-63.67792396514805	-0.9202916700171162	0.7161832508231	0.508975406060594	0.1957597520579637	-2.764881385628131	-0.0158180409499551	-0.8656882898833855	1.345525535541805	-2.93967640020407	-2.939676400200453	-0.4504766744826511	-0.02440185933073979	-1.125698611295484	-0.2647089445168614	-3.081832027676398e-08	-1.937321268801785e-06	-5.25554391774501e-07	-3.109040395015367e-07	-4.315592414197478e-08	-1.260741033496049e-06	-9.558294683476196e-08
